{
    "asset" : {
        "generator" : "Khronos glTF Blender I/O v1.5.17",
        "version" : "2.0"
    },
    "scene" : 0,
    "scenes" : [
        {
            "name" : "Scene",
            "nodes" : [
                0,
                1
            ]
        }
    ],
    "nodes" : [
        {
            "mesh" : 0,
            "name" : "Head_male",
            "rotation" : [
                0.7071068286895752,
                0,
                0,
                0.7071067094802856
            ]
        },
        {
            "mesh" : 1,
            "name" : "eyeball_m",
            "rotation" : [
                0.7071068286895752,
                0,
                0,
                0.7071067094802856
            ]
        }
    ],
    "materials" : [
        {
            "doubleSided" : true,
            "name" : "Default OBJ",
            "pbrMetallicRoughness" : {
                "baseColorFactor" : [
                    0.2211633026599884,
                    0.16229553520679474,
                    0.8000000715255737,
                    1
                ],
                "metallicFactor" : 0,
                "roughnessFactor" : 0.5
            }
        }
    ],
    "meshes" : [
        {
            "name" : "Head_male",
            "primitives" : [
                {
                    "attributes" : {
                        "POSITION" : 0,
                        "NORMAL" : 1,
                        "TEXCOORD_0" : 2
                    },
                    "indices" : 3,
                    "material" : 0
                }
            ]
        },
        {
            "name" : "eyeball_m",
            "primitives" : [
                {
                    "attributes" : {
                        "POSITION" : 4,
                        "NORMAL" : 5,
                        "TEXCOORD_0" : 6
                    },
                    "indices" : 7,
                    "material" : 0
                }
            ]
        }
    ],
    "accessors" : [
        {
            "bufferView" : 0,
            "componentType" : 5126,
            "count" : 18115,
            "max" : [
                0.15353800356388092,
                0.1328119933605194,
                0.10086099803447723
            ],
            "min" : [
                -0.15353800356388092,
                -0.11851699650287628,
                -0.2881760001182556
            ],
            "type" : "VEC3"
        },
        {
            "bufferView" : 1,
            "componentType" : 5126,
            "count" : 18115,
            "type" : "VEC3"
        },
        {
            "bufferView" : 2,
            "componentType" : 5126,
            "count" : 18115,
            "type" : "VEC2"
        },
        {
            "bufferView" : 3,
            "componentType" : 5123,
            "count" : 27504,
            "type" : "SCALAR"
        },
        {
            "bufferView" : 4,
            "componentType" : 5126,
            "count" : 6376,
            "max" : [
                0.04806699976325035,
                0.095769003033638,
                -0.16259899735450745
            ],
            "min" : [
                -0.04806699976325035,
                0.0667169988155365,
                -0.1921679973602295
            ],
            "type" : "VEC3"
        },
        {
            "bufferView" : 5,
            "componentType" : 5126,
            "count" : 6376,
            "type" : "VEC3"
        },
        {
            "bufferView" : 6,
            "componentType" : 5126,
            "count" : 6376,
            "type" : "VEC2"
        },
        {
            "bufferView" : 7,
            "componentType" : 5123,
            "count" : 9792,
            "type" : "SCALAR"
        }
    ],
    "bufferViews" : [
        {
            "buffer" : 0,
            "byteLength" : 217380,
            "byteOffset" : 0
        },
        {
            "buffer" : 0,
            "byteLength" : 217380,
            "byteOffset" : 217380
        },
        {
            "buffer" : 0,
            "byteLength" : 144920,
            "byteOffset" : 434760
        },
        {
            "buffer" : 0,
            "byteLength" : 55008,
            "byteOffset" : 579680
        },
        {
            "buffer" : 0,
            "byteLength" : 76512,
            "byteOffset" : 634688
        },
        {
            "buffer" : 0,
            "byteLength" : 76512,
            "byteOffset" : 711200
        },
        {
            "buffer" : 0,
            "byteLength" : 51008,
            "byteOffset" : 787712
        },
        {
            "buffer" : 0,
            "byteLength" : 19584,
            "byteOffset" : 838720
        }
    ],
    "buffers" : [
        {
            "byteLength" : 858304,
            "uri" : "data:application/octet-stream;base64,"
        }
    ]
}
